<svg class="mlt-diagram" viewBox="0 0 710 220" role="img" aria-label="Six present values among 32, at 10 to 15, stored as a bitmap in 4 bytes, as runs of 10 absent, 6 present and 16 absent in 3 bytes, and as a count and indices in 7 bytes" xmlns="http://www.w3.org/2000/svg">
<text class="muted small mid" x="138" y="12">0</text>
<text class="muted small mid" x="318" y="12">10</text>
<text class="muted small mid" x="408" y="12">15</text>
<text class="muted small mid" x="696" y="12">31</text>
<text class="row" x="0" y="38">present</text>
<rect class="plain" x="130" y="24" width="16" height="28" rx="3"/>
<text class="cell small" x="138" y="38">0</text>
<rect class="plain" x="148" y="24" width="16" height="28" rx="3"/>
<text class="cell small" x="156" y="38">0</text>
<rect class="plain" x="166" y="24" width="16" height="28" rx="3"/>
<text class="cell small" x="174" y="38">0</text>
<rect class="plain" x="184" y="24" width="16" height="28" rx="3"/>
<text class="cell small" x="192" y="38">0</text>
<rect class="plain" x="202" y="24" width="16" height="28" rx="3"/>
<text class="cell small" x="210" y="38">0</text>
<rect class="plain" x="220" y="24" width="16" height="28" rx="3"/>
<text class="cell small" x="228" y="38">0</text>
<rect class="plain" x="238" y="24" width="16" height="28" rx="3"/>
<text class="cell small" x="246" y="38">0</text>
<rect class="plain" x="256" y="24" width="16" height="28" rx="3"/>
<text class="cell small" x="264" y="38">0</text>
<rect class="plain" x="274" y="24" width="16" height="28" rx="3"/>
<text class="cell small" x="282" y="38">0</text>
<rect class="plain" x="292" y="24" width="16" height="28" rx="3"/>
<text class="cell small" x="300" y="38">0</text>
<rect class="f1" x="310" y="24" width="16" height="28" rx="3"/>
<text class="cell small" x="318" y="38">1</text>
<rect class="f1" x="328" y="24" width="16" height="28" rx="3"/>
<text class="cell small" x="336" y="38">1</text>
<rect class="f1" x="346" y="24" width="16" height="28" rx="3"/>
<text class="cell small" x="354" y="38">1</text>
<rect class="f1" x="364" y="24" width="16" height="28" rx="3"/>
<text class="cell small" x="372" y="38">1</text>
<rect class="f1" x="382" y="24" width="16" height="28" rx="3"/>
<text class="cell small" x="390" y="38">1</text>
<rect class="f1" x="400" y="24" width="16" height="28" rx="3"/>
<text class="cell small" x="408" y="38">1</text>
<rect class="plain" x="418" y="24" width="16" height="28" rx="3"/>
<text class="cell small" x="426" y="38">0</text>
<rect class="plain" x="436" y="24" width="16" height="28" rx="3"/>
<text class="cell small" x="444" y="38">0</text>
<rect class="plain" x="454" y="24" width="16" height="28" rx="3"/>
<text class="cell small" x="462" y="38">0</text>
<rect class="plain" x="472" y="24" width="16" height="28" rx="3"/>
<text class="cell small" x="480" y="38">0</text>
<rect class="plain" x="490" y="24" width="16" height="28" rx="3"/>
<text class="cell small" x="498" y="38">0</text>
<rect class="plain" x="508" y="24" width="16" height="28" rx="3"/>
<text class="cell small" x="516" y="38">0</text>
<rect class="plain" x="526" y="24" width="16" height="28" rx="3"/>
<text class="cell small" x="534" y="38">0</text>
<rect class="plain" x="544" y="24" width="16" height="28" rx="3"/>
<text class="cell small" x="552" y="38">0</text>
<rect class="plain" x="562" y="24" width="16" height="28" rx="3"/>
<text class="cell small" x="570" y="38">0</text>
<rect class="plain" x="580" y="24" width="16" height="28" rx="3"/>
<text class="cell small" x="588" y="38">0</text>
<rect class="plain" x="598" y="24" width="16" height="28" rx="3"/>
<text class="cell small" x="606" y="38">0</text>
<rect class="plain" x="616" y="24" width="16" height="28" rx="3"/>
<text class="cell small" x="624" y="38">0</text>
<rect class="plain" x="634" y="24" width="16" height="28" rx="3"/>
<text class="cell small" x="642" y="38">0</text>
<rect class="plain" x="652" y="24" width="16" height="28" rx="3"/>
<text class="cell small" x="660" y="38">0</text>
<rect class="plain" x="670" y="24" width="16" height="28" rx="3"/>
<text class="cell small" x="678" y="38">0</text>
<rect class="plain" x="688" y="24" width="16" height="28" rx="3"/>
<text class="cell small" x="696" y="38">0</text>
<text class="row" x="0" y="82">Bitmap<tspan class="muted"> 4 B</tspan></text>
<rect class="plain" x="130" y="68" width="142" height="28" rx="3"/>
<text class="cell" x="201" y="82">00</text>
<rect class="plain" x="274" y="68" width="142" height="28" rx="3"/>
<text class="cell" x="345" y="82">FC</text>
<rect class="plain" x="418" y="68" width="142" height="28" rx="3"/>
<text class="cell" x="489" y="82">00</text>
<rect class="plain" x="562" y="68" width="142" height="28" rx="3"/>
<text class="cell" x="633" y="82">00</text>
<text class="row" x="0" y="122">Runs<tspan class="t1"> 3 B</tspan></text>
<rect class="plain" x="130" y="108" width="178" height="28" rx="3"/>
<text class="cell" x="219" y="122">0A</text>
<text class="muted small mid" x="219" y="150">10 absent</text>
<rect class="f1" x="310" y="108" width="106" height="28" rx="3"/>
<text class="cell" x="363" y="122">06</text>
<text class="muted small mid" x="363" y="150">6 present</text>
<rect class="plain" x="418" y="108" width="286" height="28" rx="3"/>
<text class="cell" x="561" y="122">10</text>
<text class="muted small mid" x="561" y="150">16 absent</text>
<text class="row" x="0" y="182">Indices<tspan class="muted"> 7 B</tspan></text>
<rect class="plain" x="130" y="168" width="44" height="28" rx="3"/>
<text class="cell" x="152" y="182">06</text>
<text class="muted small mid" x="152" y="210">count</text>
<rect class="f1" x="178" y="168" width="44" height="28" rx="3"/>
<text class="cell" x="200" y="182">0A</text>
<text class="muted small mid" x="200" y="210">→ 10</text>
<rect class="f1" x="226" y="168" width="44" height="28" rx="3"/>
<text class="cell" x="248" y="182">00</text>
<text class="muted small mid" x="248" y="210">→ 11</text>
<rect class="f1" x="274" y="168" width="44" height="28" rx="3"/>
<text class="cell" x="296" y="182">00</text>
<text class="muted small mid" x="296" y="210">→ 12</text>
<rect class="f1" x="322" y="168" width="44" height="28" rx="3"/>
<text class="cell" x="344" y="182">00</text>
<text class="muted small mid" x="344" y="210">→ 13</text>
<rect class="f1" x="370" y="168" width="44" height="28" rx="3"/>
<text class="cell" x="392" y="182">00</text>
<text class="muted small mid" x="392" y="210">→ 14</text>
<rect class="f1" x="418" y="168" width="44" height="28" rx="3"/>
<text class="cell" x="440" y="182">00</text>
<text class="muted small mid" x="440" y="210">→ 15</text>
</svg>
