<svg class="mlt-diagram" viewBox="0 0 710 240" role="img" aria-label="city stored in the 3-stream Dictionary layout, in stream order" xmlns="http://www.w3.org/2000/svg">
<text class="bold mid t0" x="198" y="14">feature 0</text>
<path class="bracket t0" d="M150 34V28H246V34"/>
<text class="bold mid t1" x="300" y="14">feature 1</text>
<path class="bracket t1" d="M252 34V28H348V34"/>
<text class="bold mid t0" x="402" y="14">feature 2</text>
<path class="bracket t0" d="M354 34V28H450V34"/>
<text class="bold mid t1" x="504" y="14">feature 3</text>
<path class="bracket t1" d="M456 34V28H552V34"/>
<text class="row" x="0" y="54">Present</text>
<rect class="f0" x="150" y="40" width="96" height="28" rx="3"/>
<text class="cell" x="198" y="54">1</text>
<rect class="f1" x="252" y="40" width="96" height="28" rx="3"/>
<text class="cell" x="300" y="54">1</text>
<rect class="f0" x="354" y="40" width="96" height="28" rx="3"/>
<text class="cell" x="402" y="54">1</text>
<rect class="f1" x="456" y="40" width="96" height="28" rx="3"/>
<text class="cell" x="504" y="54">0</text>
<text class="muted small" x="590" y="54">4 bits</text>
<text class="muted small mid" x="192" y="88">entry 0</text>
<rect class="plain" x="150" y="98" width="84" height="28" rx="3"/>
<text class="cell" x="192" y="112">7</text>
<text class="muted small mid" x="281" y="88">entry 1</text>
<rect class="plain" x="239" y="98" width="84" height="28" rx="3"/>
<text class="cell" x="281" y="112">5</text>
<text class="row" x="0" y="112">Length/Dictionary</text>
<text class="muted small" x="590" y="112">2 lengths</text>
<text class="row" x="0" y="152">Offset/String</text>
<rect class="f0" x="150" y="138" width="96" height="28" rx="3"/>
<text class="cell" x="198" y="152">0</text>
<rect class="f1" x="252" y="138" width="96" height="28" rx="3"/>
<text class="cell" x="300" y="152">1</text>
<rect class="f0" x="354" y="138" width="96" height="28" rx="3"/>
<text class="cell" x="402" y="152">0</text>
<rect class="implicit" x="456" y="138" width="96" height="28" rx="3"/>
<text class="cell muted" x="504" y="152">null</text>
<text class="muted small" x="590" y="152">3 offsets</text>
<rect class="plain" x="150" y="196" width="84" height="28" rx="3"/>
<text class="cell" x="192" y="210">"Mailand"</text>
<rect class="plain" x="239" y="196" width="84" height="28" rx="3"/>
<text class="cell" x="281" y="210">"Milan"</text>
<text class="row" x="0" y="210">Data/Single</text>
<text class="muted small" x="590" y="210">12 B</text>
</svg>
