<svg class="mlt-diagram" viewBox="0 0 710 320" role="img" aria-label="items of nested_list_struct in byte order: the list node with its lengths, the nameless struct element, then the id and tag leaves, each stream below the list writing its own count" xmlns="http://www.w3.org/2000/svg">
<text class="row" x="0" y="34">items</text>
<text class="muted small mid" x="152" y="10">type</text>
<rect class="f0" x="130" y="20" width="44" height="28" rx="3"/>
<text class="cell" x="152" y="34">0d</text>
<text class="small mid" x="152" y="62">List</text>
<text class="muted small mid" x="217.3" y="10">name</text>
<rect class="f0" x="180" y="20" width="74.6" height="28" rx="3"/>
<text class="cell" x="217.3" y="34">"items"</text>
<text class="muted small mid" x="290.1" y="10">lengths</text>
<rect class="f1" x="260.6" y="20" width="59" height="28" rx="3"/>
<text class="cell" x="290.1" y="34">[2,1]</text>
<text class="small mid" x="290.1" y="62">count 2</text>
<text class="muted small" x="470" y="34">12 B</text>
<text class="row" x="0" y="112">items[]</text>
<text class="muted small mid" x="152" y="88">type</text>
<rect class="f0" x="130" y="98" width="44" height="28" rx="3"/>
<text class="cell" x="152" y="112">0c</text>
<text class="small mid" x="152" y="140">Struct</text>
<text class="muted small mid" x="216" y="88">name</text>
<rect class="implicit" x="180" y="98" width="72" height="28" rx="3"/>
<text class="cell muted" x="216" y="112">none</text>
<text class="muted small mid" x="280" y="88">fields</text>
<rect class="f0" x="258" y="98" width="44" height="28" rx="3"/>
<text class="cell" x="280" y="112">2</text>
<text class="muted small" x="470" y="112">2 B</text>
<text class="row" x="0" y="190">items[].id</text>
<text class="muted small mid" x="152" y="166">type</text>
<rect class="f0" x="130" y="176" width="44" height="28" rx="3"/>
<text class="cell" x="152" y="190">05</text>
<text class="small mid" x="152" y="218">Int32</text>
<text class="muted small mid" x="205.6" y="166">name</text>
<rect class="f0" x="180" y="176" width="51.2" height="28" rx="3"/>
<text class="cell" x="205.6" y="190">"id"</text>
<text class="muted small mid" x="274.5" y="166">data</text>
<rect class="f1" x="237.2" y="176" width="74.6" height="28" rx="3"/>
<text class="cell" x="274.5" y="190">[1,2,3]</text>
<text class="small mid" x="274.5" y="218">count 3</text>
<text class="muted small" x="470" y="190">10 B</text>
<text class="row" x="0" y="268">items[].tag</text>
<text class="muted small mid" x="152" y="244">type</text>
<rect class="f0" x="130" y="254" width="44" height="28" rx="3"/>
<text class="cell" x="152" y="268">0b</text>
<text class="small mid" x="152" y="296">String</text>
<text class="muted small mid" x="209.5" y="244">name</text>
<rect class="f0" x="180" y="254" width="59" height="28" rx="3"/>
<text class="cell" x="209.5" y="268">"tag"</text>
<text class="muted small mid" x="282.3" y="244">lengths</text>
<rect class="f1" x="245" y="254" width="74.6" height="28" rx="3"/>
<text class="cell" x="282.3" y="268">[2,2,2]</text>
<text class="small mid" x="282.3" y="296">count 3</text>
<text class="muted small mid" x="366.8" y="244">values</text>
<rect class="f1" x="325.6" y="254" width="82.4" height="28" rx="3"/>
<text class="cell" x="366.8" y="268">"hilohi"</text>
<text class="small mid" x="366.8" y="296">6 B blob</text>
<text class="muted small" x="470" y="268">19 B</text>
</svg>
