<svg class="mlt-diagram" viewBox="0 0 710 174" role="img" aria-label="city in the Dict layout, in byte order: type byte, name and presence bitmap, then the streams, the first one&#x27;s extension bits 01 naming the layout" xmlns="http://www.w3.org/2000/svg">
<text class="row" x="0" y="34">city</text>
<text class="muted small mid" x="154.8" y="10">type</text>
<rect class="f0" x="130" y="20" width="49.6" height="28" rx="3"/>
<text class="cell" x="154.8" y="34">1b</text>
<text class="small mid" x="154.8" y="62">String</text>
<text class="muted small mid" x="219" y="10">name</text>
<rect class="f0" x="185.6" y="20" width="66.8" height="28" rx="3"/>
<text class="cell" x="219" y="34">"city"</text>
<text class="muted small mid" x="289.8" y="10">presence</text>
<rect class="f1" x="258.4" y="20" width="62.8" height="28" rx="3"/>
<text class="cell" x="289.8" y="34">1110</text>
<text class="small mid" x="289.8" y="62">bitmap</text>
<text class="row" x="0" y="112"></text>
<text class="muted small mid" x="177.9" y="88">Codes</text>
<rect class="f1" x="130" y="98" width="95.8" height="28" rx="3"/>
<text class="cell" x="177.9" y="112">[0,1,0]</text>
<text class="small mid" x="177.9" y="140">ext 01 = Dict</text>
<text class="small mid" x="177.9" y="154">implied 3</text>
<text class="muted small mid" x="273.1" y="88">DictLengths</text>
<rect class="f1" x="231.8" y="98" width="82.6" height="28" rx="3"/>
<text class="cell" x="273.1" y="112">[7,5]</text>
<text class="small mid" x="273.1" y="140">count 2</text>
<text class="muted small mid" x="385" y="88">DictValues</text>
<rect class="f1" x="320.4" y="98" width="129.2" height="28" rx="3"/>
<text class="cell" x="385" y="112">"MailandMilan"</text>
<text class="small mid" x="385" y="140">12 B blob</text>
</svg>
