<svg class="mlt-diagram" viewBox="0 0 710 336" role="img" aria-label="name:de and name:en over four features, as codes into one shared dictionary of five strings. The Plain kind stores the strings back to back" xmlns="http://www.w3.org/2000/svg">
<text class="bold mid t0" x="180" y="14">feature 0</text>
<path class="bracket t0" d="M130 34V28H230V34"/>
<text class="bold mid t1" x="286" y="14">feature 1</text>
<path class="bracket t1" d="M236 34V28H336V34"/>
<text class="bold mid t0" x="392" y="14">feature 2</text>
<path class="bracket t0" d="M342 34V28H442V34"/>
<text class="bold mid t1" x="498" y="14">feature 3</text>
<path class="bracket t1" d="M448 34V28H548V34"/>
<text class="muted small" x="0" y="50">name:de</text>
<text class="row" x="0" y="72">codes</text>
<text class="muted small" x="0" y="104">name:en</text>
<text class="row" x="0" y="126">presence</text>
<text class="row" x="0" y="166">codes</text>
<rect class="f0" x="130" y="58" width="100" height="28" rx="3"/>
<text class="cell" x="180" y="72">0</text>
<rect class="f0" x="130" y="112" width="100" height="28" rx="3"/>
<text class="cell" x="180" y="126">1</text>
<rect class="f0" x="130" y="152" width="100" height="28" rx="3"/>
<text class="cell" x="180" y="166">1</text>
<rect class="f1" x="236" y="58" width="100" height="28" rx="3"/>
<text class="cell" x="286" y="72">2</text>
<rect class="f1" x="236" y="112" width="100" height="28" rx="3"/>
<text class="cell" x="286" y="126">1</text>
<rect class="f1" x="236" y="152" width="100" height="28" rx="3"/>
<text class="cell" x="286" y="166">3</text>
<rect class="f0" x="342" y="58" width="100" height="28" rx="3"/>
<text class="cell" x="392" y="72">4</text>
<rect class="f0" x="342" y="112" width="100" height="28" rx="3"/>
<text class="cell" x="392" y="126">1</text>
<rect class="f0" x="342" y="152" width="100" height="28" rx="3"/>
<text class="cell" x="392" y="166">4</text>
<rect class="f1" x="448" y="58" width="100" height="28" rx="3"/>
<text class="cell" x="498" y="72">0</text>
<rect class="f1" x="448" y="112" width="100" height="28" rx="3"/>
<text class="cell" x="498" y="126">0</text>
<rect class="implicit" x="448" y="152" width="100" height="28" rx="3"/>
<text class="cell muted" x="498" y="166">null</text>
<text class="muted small" x="588" y="72">4 codes</text>
<text class="muted small" x="588" y="126">4 bits</text>
<text class="muted small" x="588" y="166">3 codes</text>
<text class="muted small" x="0" y="204">Plain dictionary</text>
<text class="muted small mid" x="172" y="220">entry 0</text>
<text class="muted small mid" x="261" y="220">entry 1</text>
<text class="muted small mid" x="350" y="220">entry 2</text>
<text class="muted small mid" x="439" y="220">entry 3</text>
<text class="muted small mid" x="528" y="220">entry 4</text>
<text class="row" x="0" y="244">DictLengths</text>
<rect class="plain" x="130" y="230" width="84" height="28" rx="3"/>
<text class="cell" x="172" y="244">3</text>
<rect class="plain" x="219" y="230" width="84" height="28" rx="3"/>
<text class="cell" x="261" y="244">4</text>
<rect class="plain" x="308" y="230" width="84" height="28" rx="3"/>
<text class="cell" x="350" y="244">7</text>
<rect class="plain" x="397" y="230" width="84" height="28" rx="3"/>
<text class="cell" x="439" y="244">5</text>
<rect class="plain" x="486" y="230" width="84" height="28" rx="3"/>
<text class="cell" x="528" y="244">5</text>
<text class="muted small" x="588" y="244">5 lengths</text>
<text class="row" x="0" y="284">DictValues</text>
<rect class="plain" x="130" y="270" width="84" height="28" rx="3"/>
<text class="cell" x="172" y="284">"Rom"</text>
<rect class="plain" x="219" y="270" width="84" height="28" rx="3"/>
<text class="cell" x="261" y="284">"Rome"</text>
<rect class="plain" x="308" y="270" width="84" height="28" rx="3"/>
<text class="cell" x="350" y="284">"Mailand"</text>
<rect class="plain" x="397" y="270" width="84" height="28" rx="3"/>
<text class="cell" x="439" y="284">"Milan"</text>
<rect class="plain" x="486" y="270" width="84" height="28" rx="3"/>
<text class="cell" x="528" y="284">"Paris"</text>
<text class="muted small" x="588" y="284">24 B</text>
<text class="muted small" x="0" y="322">read by</text>
<text class="muted small mid" x="172" y="322">de</text>
<text class="muted small mid" x="261" y="322">en</text>
<text class="muted small mid" x="350" y="322">de</text>
<text class="muted small mid" x="439" y="322">en</text>
<text class="small mid" x="528" y="322">de + en</text>
</svg>
