<svg class="mlt-diagram" viewBox="0 0 710 180" role="img" aria-label="The Morton code of (5, 3): bit i of x lands on bit 2i and bit i of y on bit 2i + 1, giving 27" xmlns="http://www.w3.org/2000/svg">
<text class="muted small" x="0" y="12">bit</text>
<text class="muted small mid" x="152.0" y="12">0</text>
<text class="muted small mid" x="202.0" y="12">1</text>
<text class="muted small mid" x="252.0" y="12">2</text>
<text class="muted small mid" x="302.0" y="12">3</text>
<text class="muted small mid" x="352.0" y="12">4</text>
<text class="muted small mid" x="402.0" y="12">5</text>
<text class="row" x="0" y="42">x = 5</text>
<text class="row" x="0" y="102">code = 27</text>
<text class="row" x="0" y="162">y = 3</text>
<rect class="f0" x="130" y="28" width="44" height="28" rx="3"/>
<text class="cell" x="152.0" y="42">1</text>
<path class="link" d="M152.0 56V88"/>
<rect class="f1" x="180" y="148" width="44" height="28" rx="3"/>
<text class="cell" x="202.0" y="162">1</text>
<path class="link" d="M202.0 148V116"/>
<rect class="f0" x="230" y="28" width="44" height="28" rx="3"/>
<text class="cell" x="252.0" y="42">0</text>
<path class="link" d="M252.0 56V88"/>
<rect class="f1" x="280" y="148" width="44" height="28" rx="3"/>
<text class="cell" x="302.0" y="162">1</text>
<path class="link" d="M302.0 148V116"/>
<rect class="f0" x="330" y="28" width="44" height="28" rx="3"/>
<text class="cell" x="352.0" y="42">1</text>
<path class="link" d="M352.0 56V88"/>
<rect class="f1" x="380" y="148" width="44" height="28" rx="3"/>
<text class="cell" x="402.0" y="162">0</text>
<path class="link" d="M402.0 148V116"/>
<rect class="f0" x="130" y="88" width="44" height="28" rx="3"/>
<text class="cell" x="152.0" y="102">1</text>
<rect class="f1" x="180" y="88" width="44" height="28" rx="3"/>
<text class="cell" x="202.0" y="102">1</text>
<rect class="f0" x="230" y="88" width="44" height="28" rx="3"/>
<text class="cell" x="252.0" y="102">0</text>
<rect class="f1" x="280" y="88" width="44" height="28" rx="3"/>
<text class="cell" x="302.0" y="102">1</text>
<rect class="f0" x="330" y="88" width="44" height="28" rx="3"/>
<text class="cell" x="352.0" y="102">1</text>
<rect class="f1" x="380" y="88" width="44" height="28" rx="3"/>
<text class="cell" x="402.0" y="102">0</text>
</svg>
